<?xml version="1.0" standalone="no"?>
<!DOCTYPE svg PUBLIC "-//W3C//DTD SVG 20010904//EN"
 "http://www.w3.org/TR/2001/REC-SVG-20010904/DTD/svg10.dtd">
<svg version="1.0" xmlns="http://www.w3.org/2000/svg"
 width="500.000000pt" height="500.000000pt" viewBox="0 0 500.000000 500.000000"
 preserveAspectRatio="xMidYMid meet">
<metadata>
Created by potrace 1.15, written by Peter Selinger 2001-2017
</metadata>
<g transform="translate(0.000000,500.000000) scale(0.100000,-0.100000)"
fill="#000000" stroke="none">
<path d="M1615 3425 c-282 -42 -545 -176 -756 -385 -267 -265 -401 -585 -386
-925 9 -199 54 -319 163 -435 129 -137 320 -201 596 -201 192 0 334 40 505
143 50 31 90 48 104 46 29 -4 42 -46 33 -110 -6 -46 -5 -48 18 -48 23 0 26 7
52 123 15 67 50 207 77 311 27 103 49 192 49 197 0 5 -9 9 -19 9 -15 0 -34
-30 -85 -136 -127 -263 -235 -375 -415 -428 -76 -22 -178 -21 -244 4 -104 39
-183 152 -212 303 -16 85 -21 383 -7 389 5 2 16 32 25 68 16 64 16 65 -3 40
-18 -23 -17 -17 5 90 14 63 25 119 25 123 0 5 5 5 11 1 6 -4 9 -19 5 -36 -3
-18 -2 -27 4 -23 6 3 10 14 10 23 1 9 7 34 14 55 15 40 11 47 -11 20 -26 -32
-8 37 38 144 78 185 159 305 279 416 138 127 249 172 414 165 85 -3 109 -8
153 -31 61 -32 117 -97 144 -168 23 -60 28 -214 9 -308 -13 -71 -13 -71 13
-71 22 0 26 11 71 193 26 105 64 243 84 305 37 109 37 112 17 112 -16 0 -28
-14 -49 -60 -25 -54 -65 -100 -87 -100 -5 0 -39 27 -76 61 -77 70 -137 103
-225 124 -76 18 -221 18 -343 0z"/>
<path d="M2554 3385 c-9 -22 4 -35 34 -35 50 0 100 -20 117 -47 14 -20 16 -40
13 -87 -6 -72 -380 -1482 -409 -1543 -11 -24 -34 -53 -49 -67 -29 -24 -105
-46 -159 -46 -22 0 -30 -5 -33 -22 l-4 -23 483 0 c266 0 483 3 483 7 0 3 2 13
6 21 4 11 -7 16 -44 21 -95 12 -139 65 -127 151 5 35 92 375 131 510 l14 51
68 -1 c37 0 100 6 141 14 66 12 76 11 106 -5 40 -21 76 -13 111 25 31 35 64
47 64 22 0 -31 30 -61 61 -61 35 0 89 47 88 77 0 16 -1 16 -9 -2 -10 -25 -38
-50 -47 -41 -3 3 -1 23 5 44 10 32 19 42 52 55 l41 16 -7 -35 c-3 -18 -3 -45
0 -59 7 -29 52 -55 94 -55 33 0 113 39 120 59 3 9 -4 8 -26 -3 -56 -29 -92
-15 -92 35 0 23 7 29 52 45 69 25 118 72 118 112 0 17 -6 35 -14 39 -11 6 -6
18 26 53 111 122 161 242 161 388 0 83 -3 98 -32 157 -65 131 -179 194 -418
230 -149 22 -1111 22 -1119 0z m893 -46 c40 -13 89 -67 103 -116 38 -130 9
-405 -56 -539 -17 -35 -23 -39 -61 -42 -40 -3 -43 -6 -54 -43 -10 -32 -17 -39
-38 -40 -24 -2 -24 -2 -3 -6 25 -5 25 -5 11 -58 -11 -41 -32 -70 -60 -86 -14
-7 -16 -1 -15 52 1 55 -2 63 -27 85 -33 28 -80 31 -133 9 -27 -11 -35 -12 -31
-2 2 6 46 170 96 362 51 193 98 366 104 385 21 58 67 69 164 39z"/>
<path d="M1955 2700 c-16 -4 -48 -8 -70 -9 -35 -2 -37 -3 -17 -11 12 -5 22
-12 22 -16 0 -3 -20 -75 -45 -158 -53 -179 -56 -212 -21 -227 36 -17 74 -3 96
34 11 17 20 37 20 42 0 6 -9 -5 -20 -23 -19 -30 -44 -37 -35 -9 2 7 27 91 55
187 28 96 53 181 55 188 5 13 4 13 -40 2z"/>
<path d="M1285 2556 c-89 -40 -147 -186 -100 -253 18 -26 70 -38 123 -28 91
17 169 164 131 248 -20 45 -93 60 -154 33z m75 -40 c0 -77 -61 -236 -90 -236
-30 0 6 176 50 248 27 44 40 40 40 -12z"/>
<path d="M1517 2558 c-16 -13 -52 -88 -42 -88 3 0 13 16 21 35 14 34 34 47 34
23 0 -7 -13 -60 -30 -118 -16 -58 -30 -111 -30 -117 0 -9 15 -13 44 -13 l44 0
23 68 c27 82 76 182 89 182 15 0 12 -20 -15 -100 -27 -80 -32 -129 -13 -148
15 -15 53 -16 79 -2 20 11 50 61 48 82 0 7 -6 2 -12 -12 -19 -40 -28 -51 -37
-45 -5 3 4 43 20 89 41 122 44 141 25 160 -37 37 -100 12 -135 -52 l-21 -37 7
33 c10 58 -52 95 -99 60z"/>
<path d="M2100 2554 c-70 -30 -121 -99 -135 -181 -6 -39 -4 -46 23 -73 23 -22
40 -30 67 -30 51 0 135 46 135 73 0 6 -8 3 -18 -6 -30 -27 -83 -33 -99 -12
-27 38 -17 62 35 79 26 9 64 30 85 47 29 24 37 37 37 64 0 54 -56 71 -130 39z"/>
<path d="M2282 2563 c-14 -6 -42 -56 -42 -75 1 -7 7 2 16 21 8 20 18 31 23 25
5 -5 16 -61 25 -124 10 -63 20 -126 23 -140 3 -20 -2 -29 -26 -43 -29 -17 -31
-17 -51 3 -40 40 -111 16 -83 -29 26 -41 101 -19 178 51 71 65 135 187 135
259 0 44 -2 49 -27 55 -55 14 -68 -58 -18 -102 l23 -22 -24 -52 c-13 -29 -26
-51 -29 -49 -2 3 -11 49 -19 104 -10 71 -20 103 -32 112 -18 13 -48 16 -72 6z"/>
<path d="M4012 2564 c-15 -7 -56 -84 -48 -91 3 -3 12 11 20 31 13 31 36 50 36
29 0 -7 -28 -111 -55 -205 l-14 -48 48 0 49 0 20 83 c32 126 68 197 102 197 5
0 -2 -11 -15 -25 -39 -38 -28 -85 20 -85 30 0 55 31 55 68 0 54 -60 70 -100
27 l-23 -25 -11 23 c-11 22 -55 33 -84 21z"/>
<path d="M983 790 c-45 -19 -58 -90 -24 -131 15 -19 29 -24 66 -24 37 0 51 5
66 24 24 29 25 82 2 110 -20 24 -77 35 -110 21z"/>
<path d="M1560 793 c0 -28 54 -163 65 -163 7 0 21 24 30 53 10 28 21 56 25 60
3 4 14 -20 23 -53 11 -37 22 -60 31 -60 15 0 73 156 63 167 -12 12 -25 -10
-42 -69 l-19 -63 -20 68 c-25 86 -43 85 -70 -3 l-19 -65 -20 68 c-12 40 -25
67 -33 67 -8 0 -14 -3 -14 -7z"/>
<path d="M2110 715 c0 -69 3 -85 15 -85 9 0 15 9 15 25 0 20 5 25 23 25 15 0
29 -9 37 -25 7 -14 19 -25 27 -25 17 0 16 10 -2 34 -12 16 -12 20 1 33 7 8 14
30 14 48 0 42 -20 55 -84 55 l-46 0 0 -85z"/>
<path d="M4130 715 c0 -69 3 -85 15 -85 9 0 15 9 15 25 0 20 5 25 25 25 15 0
31 -9 41 -25 9 -14 23 -25 31 -25 13 0 13 3 -1 25 -15 23 -15 28 -1 47 37 54
3 98 -77 98 l-48 0 0 -85z"/>
</g>
</svg>
